G04 ================== begin FILE IDENTIFICATION RECORD ==================*
G04 Layout Name:  LAYOUT.brd*
G04 Film Name:    SPTOP*
G04 File Format:  Gerber RS274X*
G04 File Origin:  Cadence Allegro 16.6-2015-S059*
G04 Origin Date:  Sat Nov 23 16:54:26 2024*
G04 *
G04 Layer:  VIA CLASS/PASTEMASK_TOP*
G04 Layer:  PIN/PASTEMASK_TOP*
G04 Layer:  DRC ERROR CLASS/PASTEMASK_TOP*
G04 *
G04 Offset:    (0.00 0.00)*
G04 Mirror:    No*
G04 Mode:      Positive*
G04 Rotation:  0*
G04 FullContactRelief:  No*
G04 UndefLineWidth:     0.00*
G04 ================== end FILE IDENTIFICATION RECORD ====================*
%FSLAX25Y25*MOIN*%
%IR0*IPPOS*OFA0.00000B0.00000*MIA0B0*SFA1.00000B1.00000*%
%ADD16R,.072X.108*%
%ADD11C,.036*%
%ADD15R,.045X.045*%
%ADD14R,.046X.046*%
%ADD13R,.033X.045*%
%ADD18R,.045X.033*%
%ADD12R,.071X.046*%
%ADD19R,.046X.071*%
%ADD10R,.054X.072*%
%ADD17R,.044X.069*%
%LPD*%
G75*
G54D10*
X10000Y12500D03*
X15000Y97500D03*
X117500Y27500D03*
G54D11*
X20000Y20000D03*
X137500Y137500D03*
G54D12*
X19528Y32756D03*
G54D13*
X15000Y69500D03*
X22700D03*
X18800Y77500D03*
X45000Y103000D03*
X37300D03*
X41200Y95000D03*
X107300Y128000D03*
X111200Y120000D03*
X115000Y128000D03*
G54D14*
X15000Y55000D03*
X24055D03*
X85000Y12500D03*
Y21555D03*
G54D15*
X22500Y127500D03*
X14100D03*
X15000Y115000D03*
X23400D03*
X45000Y12500D03*
X36600D03*
X45000Y42500D03*
X36600D03*
X37500Y30000D03*
X45900D03*
X37500Y55000D03*
X45900D03*
X45000Y67500D03*
X36600D03*
X37500Y127500D03*
X45900D03*
X60000Y12500D03*
X68400D03*
X70000Y127500D03*
X61600D03*
X55000Y142500D03*
X63400D03*
X92500Y127500D03*
X84100D03*
X142500Y30000D03*
X134100D03*
X132500Y72500D03*
X140900D03*
X132500Y87500D03*
X140900D03*
X132500Y122500D03*
X140900D03*
X140000Y105000D03*
X131600D03*
G54D16*
X24500Y142500D03*
X12500D03*
X144500Y50000D03*
X132500D03*
G54D17*
X45000Y142500D03*
X37100D03*
G54D18*
X59500Y40000D03*
Y32300D03*
X67500Y36200D03*
X70500Y62500D03*
Y70200D03*
X62500Y66300D03*
X70500Y95000D03*
Y102700D03*
X62500Y98800D03*
X93000Y62500D03*
Y70200D03*
X85000Y66300D03*
X110000D03*
Y43800D03*
Y98800D03*
X93000Y95000D03*
Y102700D03*
X85000Y98800D03*
X118000Y40000D03*
Y62500D03*
Y70200D03*
Y47700D03*
Y95000D03*
Y102700D03*
G54D19*
X107244Y17028D03*
M02*
